<svg width="12" height="10" viewBox="0 0 12 10" fill="none" xmlns="http://www.w3.org/2000/svg">
<path d="M11.7575 4.70834C11.3842 4.06084 9.33085 0.811673 5.84252 0.916673C2.61669 0.99834 0.75002 3.83334 0.24252 4.70834C0.191321 4.79702 0.164368 4.89761 0.164368 5.00001C0.164368 5.1024 0.191321 5.203 0.24252 5.29167C0.61002 5.92751 2.57585 9.08334 6.01169 9.08334H6.15752C9.38335 9.00167 11.2559 6.16667 11.7575 5.29167C11.8087 5.203 11.8357 5.1024 11.8357 5.00001C11.8357 4.89761 11.8087 4.79702 11.7575 4.70834ZM6.12835 7.91667C3.61419 7.97501 1.97502 5.82251 1.46169 5.00001C2.04502 4.06084 3.56752 2.14167 5.90085 2.08334C8.40335 2.01917 10.0484 4.17751 10.5675 5.00001C9.96669 5.93917 8.46169 7.85834 6.12835 7.91667Z" fill="#363636"/>
<path d="M5.99998 2.95834C5.59618 2.95834 5.20144 3.07809 4.86569 3.30243C4.52994 3.52677 4.26826 3.84563 4.11373 4.2187C3.9592 4.59176 3.91877 5.00228 3.99754 5.39832C4.07632 5.79436 4.27077 6.15815 4.5563 6.44369C4.84184 6.72922 5.20563 6.92367 5.60167 7.00245C5.99772 7.08122 6.40823 7.04079 6.78129 6.88626C7.15436 6.73174 7.47322 6.47005 7.69756 6.1343C7.92191 5.79855 8.04165 5.40381 8.04165 5.00001C8.04165 4.45853 7.82654 3.93922 7.44366 3.55633C7.06077 3.17345 6.54146 2.95834 5.99998 2.95834ZM5.99998 5.87501C5.82692 5.87501 5.65775 5.82369 5.51386 5.72755C5.36996 5.6314 5.25781 5.49474 5.19159 5.33486C5.12536 5.17497 5.10803 4.99904 5.14179 4.82931C5.17556 4.65957 5.25889 4.50366 5.38126 4.38129C5.50363 4.25892 5.65954 4.17559 5.82928 4.14182C5.99901 4.10806 6.17494 4.12539 6.33483 4.19162C6.49471 4.25784 6.63137 4.36999 6.72752 4.51389C6.82366 4.65778 6.87498 4.82695 6.87498 5.00001C6.87498 5.23207 6.78279 5.45463 6.6187 5.61873C6.4546 5.78282 6.23205 5.87501 5.99998 5.87501Z" fill="#363636"/>
</svg>

